#tb 0: 1/3
#media_type 0: video
#codec_id 0: rawvideo
#dimensions 0: 320x240
#sar 0: 1/1
0,          0,          0,        1,   115200, 0x0c1062d6
0,          1,          1,        1,   115200, 0x278d887e
0,          2,          2,        1,   115200, 0x75e1a17b
0,          3,          3,        1,   115200, 0x686b77e7
0,          4,          4,        1,   115200, 0x1fc2d693
0,          5,          5,        1,   115200, 0x2d0ba5a4
0,          6,          6,        1,   115200, 0x40426f99
0,          7,          7,        1,   115200, 0xc705ccd9
0,          8,          8,        1,   115200, 0x5635daa5
0,          9,          9,        1,   115200, 0x7161ef8f
